<svg xmlns="http://www.w3.org/2000/svg" width="122.68" height="92.55" viewBox="0 0 122.68 92.55"><title>termoshop-since-logo</title><g id="0894ffee-ca63-4c71-ad8a-f3ebcfa2200f" data-name="Layer 2"><g id="93bb1c13-0ecf-449b-b186-26dd90328520" data-name="Layer 1"><path d="M106.88,92.55H15.81A15.8,15.8,0,0,1,0,76.74V15.8A15.8,15.8,0,0,1,15.81,0h91.07a15.8,15.8,0,0,1,15.8,15.8V76.74a15.8,15.8,0,0,1-15.8,15.8" fill="#db0032"></path><path d="M33.16,16H23.09V44.55a2.87,2.87,0,0,1-.18,1.26,1.63,1.63,0,0,1-.76.54l-.29.12c-1,.42-1.45,1-1.45,1.69a1.13,1.13,0,0,0,.45,1,3.32,3.32,0,0,0,1.69.29h6.79a14.18,14.18,0,0,0-.54,4,10.21,10.21,0,0,0,1.84,6.22q1.84,2.5,7,5.07l.29.14q5.25,2.66,5.25,5.3a3.08,3.08,0,0,1-.91,2.41,4.6,4.6,0,0,1-2.8,1v3.17a10.63,10.63,0,0,0,11.3-11.25,11.4,11.4,0,0,0-1.95-6.82,15.79,15.79,0,0,0-6.44-4.75l-.61-.27q-5.48-2.43-5.48-4.94A3.62,3.62,0,0,1,37,46.41a3.38,3.38,0,0,1,2-1.25V42.27h-.35a9.29,9.29,0,0,0-5.54,1.68Z" fill="#fff"></path><path d="M30.27,63.59a1.12,1.12,0,0,0-1.06.53,4.35,4.35,0,0,0-.3,1.93V74.7a2.49,2.49,0,0,0,.37,1.46,1.19,1.19,0,0,0,1,.52A1.29,1.29,0,0,0,31.38,76a1.24,1.24,0,0,1,1-.69,15.31,15.31,0,0,1,2.16.67,11.67,11.67,0,0,0,3.68.69v-3a8,8,0,0,1-3.59-2.21,10.56,10.56,0,0,1-2.38-4q-.21-.6-.45-1.65c-.33-1.44-.83-2.16-1.52-2.16" fill="#fff"></path><path d="M48,42.27a1.4,1.4,0,0,0-1.12.7q-.51.7-1,.7s-.66-.23-1.9-.69a11.12,11.12,0,0,0-3.74-.71v2.8a7.18,7.18,0,0,1,3.48,1.86,9.34,9.34,0,0,1,2.29,3.65c.12.35.26.83.41,1.45.34,1.32.85,2,1.52,2a1.07,1.07,0,0,0,1-.46,3.63,3.63,0,0,0,.29-1.74V44A2.51,2.51,0,0,0,49,42.65a1.1,1.1,0,0,0-1-.38" fill="#fff"></path><path d="M40.46,16h-6v3.18a3.91,3.91,0,0,1,1.63,1.81,13.56,13.56,0,0,1,1.13,3.5q.08.37.17,1,.29,2.25,1.61,2.25A1.34,1.34,0,0,0,40,27.25,1.9,1.9,0,0,0,40.46,26Z" fill="#fff"></path><path d="M21.43,16h-6v9.25a4,4,0,0,0,.34,2,1.23,1.23,0,0,0,1.13.53q1.33,0,1.64-2.25.08-.67.15-1a14,14,0,0,1,1.15-3.52,3.93,3.93,0,0,1,1.61-1.81Z" fill="#fff"></path><path d="M100.31,21.38v1.55a1,1,0,0,1,.87.54,4.76,4.76,0,0,1,.24,1.87v11a4.8,4.8,0,0,1-.24,1.87,1,1,0,0,1-.87.54v1.55a6.81,6.81,0,0,0,5.12-2.79,11,11,0,0,0,1.83-6.68,11,11,0,0,0-1.83-6.68,6.81,6.81,0,0,0-5.12-2.79" fill="#fff"></path><path d="M99.61,21.38a6.83,6.83,0,0,0-5.12,2.79,11,11,0,0,0-1.83,6.68,11.07,11.07,0,0,0,1.83,6.69,6.74,6.74,0,0,0,5.12,2.78V38.76a1,1,0,0,1-.88-.55,4.72,4.72,0,0,1-.24-1.85v-11a4.7,4.7,0,0,1,.24-1.85,1,1,0,0,1,.88-.56Z" fill="#fff"></path><path d="M65.68,21.7h-.51l-.33,0v1.55a1.36,1.36,0,0,1,1.11.6,3.23,3.23,0,0,1,.34,1.69v2.36a3.24,3.24,0,0,1-.34,1.7,1.36,1.36,0,0,1-1.11.6v1.55a1.7,1.7,0,0,1,1.19.69,3,3,0,0,1,.36,1.63v1.58a5.42,5.42,0,0,0,.86,3.38,3.19,3.19,0,0,0,2.67,1.09,3.71,3.71,0,0,0,2.55-.93,2.65,2.65,0,0,0,1.06-2,.83.83,0,0,0-.23-.58.68.68,0,0,0-.51-.25.71.71,0,0,0-.55.37c-.18.24-.3.36-.38.36L71.68,37l-.05-.37V34.34a3.05,3.05,0,0,0-1-2.44,5.48,5.48,0,0,0-3-1.09,4.93,4.93,0,0,0,3-1.41,4.35,4.35,0,0,0,1-3,4.25,4.25,0,0,0-1.44-3.54,7.14,7.14,0,0,0-4.46-1.14" fill="#fff"></path><path d="M90.17,21.72H84.47V37.16a2.24,2.24,0,0,1-.09.79l-.35.35-.22.11a.87.87,0,0,0-.59.82.67.67,0,0,0,.23.57,1.28,1.28,0,0,0,.77.18h6a1.25,1.25,0,0,0,.75-.17.68.68,0,0,0,.22-.57.88.88,0,0,0-.58-.82l-.23-.11L90,38a1.57,1.57,0,0,1-.08-.6v-13a1.88,1.88,0,0,1,.08-.68l.33-.3.23-.11a.87.87,0,0,0,.58-.81.71.71,0,0,0-.22-.59,1.27,1.27,0,0,0-.75-.17" fill="#fff"></path><path d="M80.35,21.72H74.62a1.11,1.11,0,0,0-.68.16.62.62,0,0,0-.2.51q0,.54.63.71a2,2,0,0,1,.44.15,1.94,1.94,0,0,1,.77,1.27l.1.34L80.24,40h.71l2.8-10.55V24.34l-1.22,4.61Z" fill="#fff"></path><path d="M75.64,26.9v8.27a8.67,8.67,0,0,1-.12,1.78,1.86,1.86,0,0,1-.41.81,3.74,3.74,0,0,1-.79.59,1,1,0,0,0-.58.8.78.78,0,0,0,.24.63,1.11,1.11,0,0,0,.73.2h3.17a1.11,1.11,0,0,0,.74-.2.79.79,0,0,0,.23-.63,1,1,0,0,0-.56-.8,3.7,3.7,0,0,1-.78-.59,2,2,0,0,1-.42-.81A4.61,4.61,0,0,1,77,35.73V31.26Z" fill="#fff"></path><path d="M64.14,21.72H58.43a1.27,1.27,0,0,0-.75.17.7.7,0,0,0-.22.59.9.9,0,0,0,.58.82l.2.1.35.35a2.23,2.23,0,0,1,.09.79V37.16a2.24,2.24,0,0,1-.09.79l-.35.35-.2.1a.91.91,0,0,0-.58.83.68.68,0,0,0,.22.57,1.24,1.24,0,0,0,.75.17h6a1.26,1.26,0,0,0,.75-.17.68.68,0,0,0,.22-.57.91.91,0,0,0-.59-.83l-.2-.1-.35-.35a1.39,1.39,0,0,1-.09-.58Z" fill="#fff"></path><path d="M54.82,34.16c-.36,0-.63.37-.84,1.12a4.25,4.25,0,0,1-.37,1,3.61,3.61,0,0,1-1.27,1.38,4.23,4.23,0,0,1-1.88.59V40H55.6V36a4.36,4.36,0,0,0-.17-1.51.61.61,0,0,0-.61-.38" fill="#fff"></path><path d="M49.7,21.72H44a1.26,1.26,0,0,0-.75.17.7.7,0,0,0-.22.59.9.9,0,0,0,.58.82l.2.1.35.35a2.2,2.2,0,0,1,.09.79V37.16a2.2,2.2,0,0,1-.09.79l-.35.35-.2.1a.9.9,0,0,0-.58.83.68.68,0,0,0,.22.57A1.24,1.24,0,0,0,44,40H49.7Z" fill="#fff"></path><path d="M52.7,26.95c-.31,0-.56.3-.75.88-.11.34-.21.61-.29.82a1.72,1.72,0,0,1-.42.67,2,2,0,0,1-.77.41v1.68a2,2,0,0,1,.77.42,1.68,1.68,0,0,1,.43.69c.09.21.18.48.28.8.19.59.44.88.76.88a.53.53,0,0,0,.5-.29,2.29,2.29,0,0,0,.15-1V28.34a2.63,2.63,0,0,0-.15-1.09.52.52,0,0,0-.5-.3" fill="#fff"></path><path d="M55.44,21.72h-5V23.4a4,4,0,0,1,1.75.59,3.67,3.67,0,0,1,1.25,1.31,5.62,5.62,0,0,1,.44,1c.23.7.53,1,.88,1a.58.58,0,0,0,.47-.21.87.87,0,0,0,.17-.57Z" fill="#fff"></path><path d="M75,42.84v1.55a1,1,0,0,1,.87.54,4.75,4.75,0,0,1,.24,1.87v11a4.76,4.76,0,0,1-.24,1.87,1,1,0,0,1-.87.54v1.55A6.82,6.82,0,0,0,80.13,59,11,11,0,0,0,82,52.3a11,11,0,0,0-1.83-6.68A6.81,6.81,0,0,0,75,42.84" fill="#fff"></path><path d="M74.31,42.84a6.82,6.82,0,0,0-5.11,2.79,11,11,0,0,0-1.83,6.68A11.06,11.06,0,0,0,69.2,59a6.74,6.74,0,0,0,5.11,2.78V60.22a1,1,0,0,1-.88-.56,4.69,4.69,0,0,1-.24-1.85v-11a4.69,4.69,0,0,1,.24-1.85,1.05,1.05,0,0,1,.88-.56Z" fill="#fff"></path><path d="M90.07,43.18H84.36a1.27,1.27,0,0,0-.75.17.7.7,0,0,0-.22.58.9.9,0,0,0,.59.82l.2.1.35.35a2.24,2.24,0,0,1,.09.79V58.61a2.21,2.21,0,0,1-.09.79l-.35.35-.2.1a.9.9,0,0,0-.59.83.68.68,0,0,0,.22.57,1.26,1.26,0,0,0,.75.17h6a1.8,1.8,0,0,0,.92-.16.61.61,0,0,0,.25-.56.82.82,0,0,0-.15-.52,1.34,1.34,0,0,0-.58-.36l-.07,0a.94.94,0,0,1-.68-.88Z" fill="#fff"></path><path d="M64.93,43.18H59.16a1,1,0,0,0-.6.15.62.62,0,0,0-.17.5,1,1,0,0,0,.41.8l.19.17.19.33a2.42,2.42,0,0,1,.05.6v5.45H57.41v1.7h1.81v6a2.38,2.38,0,0,1-.05.6l-.19.33-.19.16a1,1,0,0,0-.41.79.62.62,0,0,0,.17.5,1,1,0,0,0,.6.15h5.77a1.26,1.26,0,0,0,.75-.17.68.68,0,0,0,.22-.57.88.88,0,0,0-.56-.82l-.21-.11-.35-.35a1.45,1.45,0,0,1-.09-.58V46a2.31,2.31,0,0,1,.09-.79l.35-.35.21-.12a.87.87,0,0,0,.56-.81.7.7,0,0,0-.22-.58,1.26,1.26,0,0,0-.75-.17" fill="#fff"></path><path d="M56.78,43.18H51a1.25,1.25,0,0,0-.75.17.7.7,0,0,0-.22.58.9.9,0,0,0,.59.82l.2.1.35.35a2.24,2.24,0,0,1,.09.79V58.61a2.21,2.21,0,0,1-.09.79l-.35.35-.2.1a.91.91,0,0,0-.59.83.68.68,0,0,0,.22.57,1.24,1.24,0,0,0,.75.17h5.77a1,1,0,0,0,.61-.15.62.62,0,0,0,.17-.5,1.09,1.09,0,0,0-.43-.77,1.54,1.54,0,0,1-.43-1.2V45.71a2.25,2.25,0,0,1,.06-.6l.2-.33.18-.17a1,1,0,0,0,.42-.8.62.62,0,0,0-.17-.5,1,1,0,0,0-.61-.15" fill="#fff"></path><path d="M91.25,43.18h-.49v1.55a1.37,1.37,0,0,1,1.11.6,3.25,3.25,0,0,1,.34,1.7V50.6a3.2,3.2,0,0,1-.34,1.68,1.36,1.36,0,0,1-1.12.59v1.55h.49A6.8,6.8,0,0,0,95.92,53a5.33,5.33,0,0,0,1.59-4.18,5.37,5.37,0,0,0-1.59-4.21,6.76,6.76,0,0,0-4.67-1.44" fill="#fff"></path><path d="M60.46,76.61a2.09,2.09,0,0,1-.91-.63,1.55,1.55,0,0,1-.34-1v-.19H60.5v.14a.7.7,0,0,0,.34.61,1.7,1.7,0,0,0,1,.23,1.91,1.91,0,0,0,.93-.17.51.51,0,0,0,.29-.46.55.55,0,0,0-.19-.42,1.37,1.37,0,0,0-.47-.27l-.78-.24a10.12,10.12,0,0,1-1.14-.38,2,2,0,0,1-.75-.54,1.54,1.54,0,0,1,.35-2.2,3.21,3.21,0,0,1,1.76-.43,3,3,0,0,1,1.69.44,1.48,1.48,0,0,1,.66,1.32v.1H62.88v-.08a.59.59,0,0,0-.3-.52,1.51,1.51,0,0,0-.81-.19,1.9,1.9,0,0,0-.84.15.45.45,0,0,0-.29.41.43.43,0,0,0,.17.34,1.4,1.4,0,0,0,.44.24l.74.22a10.13,10.13,0,0,1,1.17.38,2.15,2.15,0,0,1,.79.55,1.37,1.37,0,0,1,.33,1,1.57,1.57,0,0,1-.68,1.41,3.35,3.35,0,0,1-1.87.45A3.58,3.58,0,0,1,60.46,76.61Z" fill="#fff"></path><path d="M65.24,70.74H66.5v6H65.24Z" fill="#fff"></path><path d="M67.66,70.74h1.23L71.19,74q.1.15.35.58l0,0,0-.5v-3.3h1.23v6H71.55l-2.31-3.28a4.88,4.88,0,0,1-.34-.57l0,0c0,.25,0,.42,0,.52v3.3H67.66Z" fill="#fff"></path><path d="M73.73,73.73a3.19,3.19,0,0,1,.76-2.32,2.86,2.86,0,0,1,2.13-.77A3.47,3.47,0,0,1,78,70.9a2.13,2.13,0,0,1,1,.78A2.26,2.26,0,0,1,79.3,73H78a1.17,1.17,0,0,0-.37-.92,1.4,1.4,0,0,0-1-.34,1.48,1.48,0,0,0-1.22.49,2.15,2.15,0,0,0-.4,1.4v.26q0,1.89,1.62,1.89a1.49,1.49,0,0,0,1-.33,1.15,1.15,0,0,0,.38-.92H79.3a2.25,2.25,0,0,1-.35,1.29,2.12,2.12,0,0,1-.95.78,3.48,3.48,0,0,1-1.38.26Q73.73,76.82,73.73,73.73Z" fill="#fff"></path><path d="M80.24,70.74h4.7v1.07H81.5v1.32h3V74.2h-3v1.45H85v1.07H80.24Z" fill="#fff"></path><path d="M88.63,75.74H90V72.19H88.62v-.74a4.52,4.52,0,0,0,1-.24,6,6,0,0,0,1-.46h.62v5H92.5v1H88.63Z" fill="#fff"></path><path d="M93.65,76.31A2,2,0,0,1,93.18,75h1.21a1.15,1.15,0,0,0,.17.68.62.62,0,0,0,.54.23.72.72,0,0,0,.56-.21,1.08,1.08,0,0,0,.25-.57,6.8,6.8,0,0,0,.07-1,1.78,1.78,0,0,1-1.22.47A1.62,1.62,0,0,1,93.43,74,2.17,2.17,0,0,1,93,72.61a2,2,0,0,1,.26-1,1.77,1.77,0,0,1,.72-.69,2.19,2.19,0,0,1,1-.24,2,2,0,0,1,1.65.67,3.54,3.54,0,0,1,.56,2.25A6,6,0,0,1,97,75.49a1.92,1.92,0,0,1-.72,1,2.12,2.12,0,0,1-1.18.3A1.8,1.8,0,0,1,93.65,76.31Zm2-3a1.14,1.14,0,0,0,.22-.74,1.12,1.12,0,0,0-.22-.72.76.76,0,0,0-.64-.27.74.74,0,0,0-.63.27,1.15,1.15,0,0,0-.21.72,1.18,1.18,0,0,0,.21.74.75.75,0,0,0,.63.27A.77.77,0,0,0,95.69,73.35Z" fill="#fff"></path><path d="M98.49,76.31A2,2,0,0,1,98,75h1.21a1.15,1.15,0,0,0,.17.68.62.62,0,0,0,.54.23.72.72,0,0,0,.56-.21,1.09,1.09,0,0,0,.25-.57,7,7,0,0,0,.07-1,1.73,1.73,0,0,1-.53.34,1.76,1.76,0,0,1-.69.13A1.62,1.62,0,0,1,98.27,74a2.17,2.17,0,0,1-.44-1.43,2,2,0,0,1,.26-1,1.77,1.77,0,0,1,.72-.69,2.2,2.2,0,0,1,1-.24,2,2,0,0,1,1.65.67,3.54,3.54,0,0,1,.56,2.25,6,6,0,0,1-.25,1.93,1.92,1.92,0,0,1-.72,1,2.12,2.12,0,0,1-1.18.3A1.81,1.81,0,0,1,98.49,76.31Zm2-3a1.14,1.14,0,0,0,.22-.74,1.12,1.12,0,0,0-.22-.72.76.76,0,0,0-.64-.27.74.74,0,0,0-.63.27,1.15,1.15,0,0,0-.21.72,1.18,1.18,0,0,0,.21.74.74.74,0,0,0,.63.27A.77.77,0,0,0,100.53,73.35Z" fill="#fff"></path><path d="M102.79,76.41a1.82,1.82,0,0,1,.22-.89,2.72,2.72,0,0,1,.54-.69,8.87,8.87,0,0,1,.83-.67q.44-.34.7-.57a2.39,2.39,0,0,0,.43-.5,1.4,1.4,0,0,0,.22-.77.69.69,0,0,0-.21-.49.78.78,0,0,0-.59-.21q-.86,0-.86.83v.36h-1.18a1.81,1.81,0,0,1,.57-1.71,2.48,2.48,0,0,1,1.53-.45,2.11,2.11,0,0,1,1.25.31,1.48,1.48,0,0,1,.57.71,2.26,2.26,0,0,1,.14.73,2.09,2.09,0,0,1-.27,1.07,3,3,0,0,1-.64.78,10.29,10.29,0,0,1-.92.69,7.42,7.42,0,0,0-.63.47,1,1,0,0,0-.22.25H107v1.06h-4.18Z" fill="#fff"></path></g></g></svg>